<svg xmlns="http://www.w3.org/2000/svg" width="564.29" height="924.19" viewBox="0 0 149.3 244.53">
  <g transform="translate(-30.25 -15.16)" fill="#0ff">
    <ellipse cx="104.69" cy="196.05" rx="74.5" ry="63.82" paint-order="markers fill stroke"/>
    <path d="M176.1 180.25c-4.38-14.15-15.37-27.4-29.75-35.87a82.96 82.96 0 0 0-32.25-10.66c-3.9-.47-14.9-.58-18.4-.18-16.76 1.9-31.13 7.67-42.86 17.2-4.32 3.5-9.25 8.64-11.85 12.35-1.06 1.5-1.92 2.53-1.92 2.28 0-.52 3.21-8.65 5.73-14.49 2.8-6.49 10.87-22.84 15.69-31.76 5.8-10.74 13.06-23.5 26.4-46.38 16.78-28.78 25.54-44.82 30.5-55.86.7-1.57 1.32-2.8 1.38-2.73.25.3 15.33 34.56 19.1 43.39 19.6 46 32.46 84.23 37.4 111.27 1.28 6.94 2.36 14.75 2.1 15-.07.08-.64-1.53-1.27-3.56z" paint-order="markers fill stroke"/>
    <path d="M105.27 194.82c-39.66-2.21-72.7-4.03-73.41-4.05-1.3-.02-1.31-.03-1.06-1.48.38-2.13 3.28-12.33 4.37-15.37a47.02 47.02 0 0 1 2.77-5.85c1-1.78 1.8-3.43 1.74-3.66-.15-.7 5.07-13.21 8.87-21.25 8.5-18 14.61-29.18 38.15-69.85 14.23-24.57 20.31-35.48 27.17-48.7 4.85-9.35 5.03-9.63 5.54-8.66.67 1.29 13.92 31.44 18.49 42.09 20.78 48.43 34.06 89.32 38.52 118.68.44 2.9 1.06 6.4 1.36 7.8.72 3.2 1.35 8.81 1.35 11.98 0 2.28-.05 2.43-.87 2.39l-72.99-4.07z" paint-order="markers fill stroke"/>
    <path d="M122.42 195.8l-73.06-4.06c-10.17-.56-18.59-1.1-18.7-1.22-.27-.27 1.25-6.18 3.36-13.02 1.1-3.54 2.4-6.82 3.5-8.77a25.5 25.5 0 0 0 1.91-3.9c.93-4.79 14.14-32.9 23.37-49.7 4.53-8.24 12.56-22.3 26.49-46.38 11.17-19.3 17.66-30.97 24.35-43.77l5.24-10.04.7 1.34c2.8 5.49 21.32 48.5 27.28 63.39 15.9 39.73 24.88 68.92 29.33 95.3.76 4.5 1.64 9.58 1.96 11.3.32 1.71.7 5.26.84 7.9l.26 4.77-1.13-.05-55.7-3.1z" paint-order="markers fill stroke"/>
    <path d="M164.32 198.12c-6.75-.4-39.54-2.21-72.86-4.05-33.32-1.83-60.68-3.43-60.8-3.54-.67-.68 4.63-17.77 6.82-22 .95-1.82 2.63-5.68 3.74-8.57 2.8-7.36 6.94-16.4 13.02-28.45 7.57-15.04 11.93-22.85 35.32-63.34 10.78-18.65 17.16-30.1 23.02-41.32a608.8 608.8 0 0 1 5.45-10.24l.96-1.66 1.58 3.42c2.2 4.73 10.92 24.6 16.55 37.72 20.95 48.77 34.46 89.79 39.09 118.68a507.8 507.8 0 0 0 1.61 9.35c.53 2.9 1.07 7.41 1.2 10.04l.23 4.78-1.32-.05c-.73-.03-6.86-.37-13.6-.77z" paint-order="markers fill stroke"/>
    <path d="M149.12 197.34c-14.47-.82-47-2.65-72.27-4.05-25.28-1.4-46.06-2.64-46.18-2.76-.7-.7 4.46-17.4 6.79-22 .92-1.82 2.6-5.68 3.72-8.57 2.82-7.25 6.9-16.19 12.49-27.37 7.49-14.97 10-19.5 33.29-59.94 13.87-24.08 19.78-34.68 26.3-47.16a346.9 346.9 0 0 1 5.29-9.88c.45-.66.56-.57 1.25.98 21.07 46.82 34.1 79.1 43.48 107.7 6.55 20 9.93 33.3 13.18 51.84 2.07 11.8 2.65 16.13 2.66 19.78l.01 3.03-1.85-.05a4659 4659 0 0 1-28.16-1.55z" paint-order="markers fill stroke"/>
    <path d="M103.52 194.82c-39.12-2.21-71.53-4.03-72.01-4.04-1.13-.04-1.12-.56.11-5.31 1.57-6.05 4.06-13.4 5.53-16.31.74-1.48 2.45-5.43 3.8-8.77 3.94-9.8 5.83-13.9 12.72-27.71 7.38-14.79 11.92-23.01 29.77-53.98 16.5-28.62 21.68-37.87 28.75-51.26a489.42 489.42 0 0 1 6.37-11.85c.6-.86-.3-2.68 8.34 16.92 17.25 39.11 26.45 62.2 35.1 88.08 4.84 14.49 7.56 23.66 10.1 34.1 3.07 12.6 6.57 32.55 6.91 39.47l.24 4.78-2.3-.05c-1.26-.03-34.3-1.86-73.43-4.07z" paint-order="markers fill stroke"/>
    <path d="M38.07 165.83c-.04-.72 4.98-13.27 8.35-20.88 6.35-14.33 17.86-36.22 29.92-56.9 7.75-13.3 26.96-45.66 27.3-46 1.36-1.37-1.82 4.33-20.21 36.26a3701.82 3701.82 0 0 0-17.91 31.38c-7.18 12.84-19.26 37.15-22.76 45.79-3.34 8.25-4.64 11.12-4.69 10.35z" paint-order="markers fill stroke"/>
    <path d="M103.13 194.82a72419.9 72419.9 0 0 0-71.81-4.04c-.97-.04-.88-1.14.5-6.1 1.86-6.72 3.88-12.61 5.26-15.38 2.1-4.2 3.24-7.31 3.04-8.26-.14-.63-.1-.74.17-.37.3.42.42.4.62-.13.14-.36.15-.81.03-1.01-.13-.2-.02-1 .23-1.77.3-.88.57-1.23.76-.93.37.6.86-.52.56-1.29-.8-2.08 17.6-39.14 30.53-61.45 8.6-14.84 23.22-39.37 23.38-39.21.14.14-4.43 8.4-9.9 17.87-.1.16-.09.3.02.3.5 0 19.83-34.5 27.52-49.12 2.2-4.18 4.23-7.93 4.52-8.34.62-.9.11-1.94 10.76 22.37C152.53 90.97 166 128 172.82 157.62c2.95 12.75 5.9 30.2 6.2 36.54l.23 4.78-2.5-.05c-1.37-.03-34.5-1.86-73.62-4.07zm-61.2-37c0-.22-.18-.13-.38.19-.21.32-.38.76-.38.97 0 .22.17.13.38-.19.2-.32.37-.76.37-.97zm1.94-4.68c0-.22-.17-.13-.37.2-.21.31-.38.75-.38.97 0 .21.17.12.38-.2.2-.32.37-.76.37-.97zm1.17-2.73c0-.21-.17-.13-.38.2-.2.32-.37.75-.37.97 0 .21.17.13.37-.2.21-.32.38-.76.38-.97zm15.8-31.77c.33-.64.52-1.17.41-1.17-.1 0-.47.53-.8 1.17-.33.65-.52 1.17-.41 1.17.1 0 .47-.52.8-1.17zm2.53-4.67c.44-.86.71-1.56.6-1.56-.1 0-.55.7-.99 1.56-.43.85-.7 1.56-.6 1.56.11 0 .56-.7 1-1.56zm2.15-3.9c.33-.64.51-1.17.4-1.17-.1 0-.46.53-.8 1.17-.33.64-.51 1.17-.4 1.17.1 0 .46-.53.8-1.17zm1.75-3.12c.44-.86.7-1.56.6-1.56-.1 0-.55.7-.99 1.56-.44.86-.7 1.56-.6 1.56.1 0 .55-.7 1-1.56zm1.75-3.12c.34-.64.52-1.17.41-1.17-.1 0-.46.53-.8 1.17-.33.65-.51 1.17-.4 1.17.1 0 .46-.52.8-1.17zm1.56-2.73c.34-.64.52-1.16.41-1.16-.1 0-.46.52-.8 1.16-.33.65-.51 1.17-.4 1.17.1 0 .46-.52.8-1.17zm1.56-2.72c.34-.65.52-1.17.41-1.17-.1 0-.46.52-.8 1.17-.33.64-.51 1.17-.4 1.17.1 0 .46-.53.8-1.17zm1.56-2.73c.33-.65.52-1.17.41-1.17-.1 0-.47.52-.8 1.17-.33.64-.51 1.17-.4 1.17.1 0 .46-.53.8-1.17zm1.56-2.73c.33-.64.52-1.17.41-1.17-.1 0-.47.53-.8 1.17-.33.64-.52 1.17-.4 1.17.1 0 .46-.53.8-1.17zm1.56-2.73c.33-.64.52-1.17.41-1.17-.1 0-.47.53-.8 1.17-.33.64-.52 1.17-.4 1.17.1 0 .46-.53.79-1.17zm1.56-2.73c.33-.64.52-1.17.4-1.17-.1 0-.46.53-.8 1.17-.32.65-.5 1.17-.4 1.17.1 0 .47-.52.8-1.17zm1.56-2.73c.33-.64.52-1.16.4-1.16-.1 0-.46.52-.8 1.16-.32.65-.5 1.17-.4 1.17.1 0 .47-.52.8-1.17zm2.74-4.77l2.01-3.5c.1-.17.08-.3-.02-.3-.14 0-1.47 2.21-4.03 6.72-.09.16-.08.3.02.3s1.01-1.45 2.02-3.22zm3.1-5.36c.34-.64.52-1.17.41-1.17-.1 0-.46.53-.8 1.17-.33.64-.51 1.17-.4 1.17.1 0 .46-.53.8-1.17z" paint-order="markers fill stroke"/>
    <path d="M133.73 196.57c-22.08-1.24-53.04-2.98-68.8-3.85-15.75-.87-29.94-1.7-31.52-1.83l-2.87-.24.22-1.6c.58-4.2 4.43-15.87 7.08-21.47 1-2.13 1.88-4.41 1.93-5.07.14-1.72 1.8-6.04 2.28-5.95.22.05.44-.53.48-1.28.14-2.62 9.34-22.25 18.53-39.55 7.34-13.82 13.45-24.46 32.97-57.41 4.4-7.42 5.6-9.27 5.08-7.79-.4 1.1.05.79.73-.53.39-.75.44-1.1.15-.92-.3.2-.4.1-.27-.25.1-.3.38-.5.62-.45.24.06.32-.17.18-.55-.17-.42-.1-.55.19-.37.51.32 1.62-1.64 1.35-2.4-.1-.27.03-.45.27-.39.38.1 5.5-9.1 14.23-25.55 1.25-2.36 2.39-4.08 2.58-3.9.87.88 20.46 46.1 27.03 62.42 13.67 33.94 23.35 63.65 28.08 86.22 2.2 10.47 4.53 25.2 4.76 30.1l.24 4.98-2.69-.05c-1.48-.03-20.75-1.07-42.83-2.32zm-91.8-38.75c0-.22-.18-.13-.38.19-.21.32-.38.76-.38.97 0 .22.17.13.38-.19.2-.32.37-.76.37-.97zm1.94-4.68c0-.22-.17-.13-.37.2-.21.31-.38.75-.38.97 0 .21.17.12.38-.2.2-.32.37-.76.37-.97zm19.5-39.17c.23-.43.33-.78.23-.78-.11 0-.39.35-.62.78-.23.43-.33.78-.22.78.1 0 .38-.35.61-.78zm2.15-3.9c.33-.64.51-1.17.4-1.17-.1 0-.46.53-.8 1.17-.33.64-.51 1.17-.4 1.17.1 0 .46-.53.8-1.17zm1.75-3.12c.23-.43.33-.78.22-.78-.1 0-.38.35-.6.78-.24.43-.34.78-.23.78.1 0 .38-.35.61-.78zm1.56-2.73c.23-.43.33-.78.22-.78-.1 0-.38.35-.61.78-.23.43-.33.78-.22.78.1 0 .38-.35.61-.78zm5.07-8.96c.23-.43.33-.78.22-.78-.1 0-.38.35-.61.78-.23.43-.33.78-.23.78.11 0 .39-.35.62-.78zm1.56-2.73c.23-.43.33-.78.22-.78-.1 0-.38.35-.61.78-.23.43-.33.78-.23.78.11 0 .39-.35.62-.78zm4.28-7.4c.23-.43.33-.79.23-.79-.11 0-.39.36-.62.78-.23.43-.33.78-.22.78.1 0 .38-.35.61-.78zm1.56-2.73c.23-.43.33-.78.22-.78-.1 0-.38.35-.6.78-.24.42-.34.78-.23.78.1 0 .38-.36.61-.78zm1.56-2.73c.23-.43.33-.78.22-.78-.1 0-.38.35-.6.78-.24.43-.34.78-.23.78.1 0 .38-.35.61-.78zm2.92-5.07c.34-.64.52-1.17.41-1.17-.1 0-.46.53-.8 1.17-.33.64-.51 1.17-.4 1.17.1 0 .46-.53.8-1.17zm1.37-2.34c.23-.43.33-.78.22-.78-.1 0-.38.35-.61.78-.23.43-.33.78-.22.78.1 0 .38-.35.6-.78zm1.56-2.73c.23-.42.33-.78.22-.78-.1 0-.38.36-.61.78-.23.43-.33.78-.22.78.1 0 .38-.35.6-.78zm1.56-2.72c.23-.43.33-.78.22-.78-.1 0-.38.35-.61.78-.23.42-.33.78-.23.78.11 0 .39-.36.62-.78zm1.56-2.73c.23-.43.33-.78.22-.78-.1 0-.38.35-.61.78-.23.43-.33.78-.23.78.11 0 .39-.35.62-.78zm1.36-2.34c.33-.64.52-1.17.41-1.17-.1 0-.47.53-.8 1.17-.33.64-.52 1.17-.4 1.17.1 0 .46-.53.79-1.17zM94.75 59c.33-.64.52-1.17.4-1.17-.1 0-.46.53-.8 1.17-.32.64-.5 1.17-.4 1.17.1 0 .47-.53.8-1.17zm1.75-3.12c.44-.86.71-1.56.6-1.56-.1 0-.55.7-.99 1.56-.43.86-.7 1.56-.6 1.56.11 0 .56-.7 1-1.56zm1.76-3.12c.33-.64.51-1.17.4-1.17-.1 0-.46.53-.8 1.17-.33.65-.51 1.17-.4 1.17.1 0 .46-.52.8-1.17z" paint-order="markers fill stroke"/>
    <path d="M140.16 196.96c-18.33-1.04-49.2-2.77-68.6-3.84-43.66-2.43-40.93-2.2-40.93-3.28 0-2.57 4.03-15.23 6.86-21.55 1.36-3.03 2.02-4.98 1.85-5.43-.2-.5-.13-.6.25-.37.34.2.42.17.25-.12-.3-.48 2.77-8.5 6.17-16.18 7.28-16.41 17.66-36.14 31.62-60.1 13.42-23 21.19-35.85 21.68-35.85.28 0 .51-.35.52-.78.03-1.05 1-2.95 1.39-2.7.41.25 1.18-1.2.82-1.57-.15-.15.07-.52.48-.83.42-.3.62-.55.46-.55-.16 0-.03-.27.3-.6.65-.65 3.64-6.03 10.7-19.28 2.57-4.82 4.82-8.75 5-8.72.65.1 20.22 45 27.33 62.7 14.07 35.03 23.29 63.5 28.11 86.8 2.2 10.64 4.39 24.57 4.6 29.45l.23 4.78-2.89-.05c-1.58-.02-17.87-.9-36.2-1.93zM88.7 69.53c.23-.42.33-.78.22-.78-.1 0-.38.36-.61.78-.23.43-.33.78-.22.78.1 0 .38-.35.6-.78zm1.56-2.72c.23-.43.33-.78.22-.78-.1 0-.38.35-.61.78-.23.42-.33.78-.23.78.11 0 .39-.36.62-.78zm1.56-2.73c.23-.43.33-.78.22-.78-.1 0-.38.35-.61.78-.23.43-.33.78-.23.78.11 0 .39-.35.62-.78zm1.56-2.73c.22-.43.32-.78.22-.78-.11 0-.39.35-.61.78-.23.43-.33.78-.23.78.11 0 .39-.35.62-.78zm1.55-2.73c.23-.43.33-.78.23-.78-.11 0-.39.35-.62.78-.23.43-.33.78-.22.78.1 0 .38-.35.61-.78zm1.56-2.73c.23-.43.33-.78.23-.78-.11 0-.39.35-.62.78-.23.43-.33.78-.22.78.1 0 .38-.35.61-.78zm1.56-2.73c.23-.42.33-.78.22-.78-.1 0-.38.36-.6.78-.24.43-.34.78-.23.78.1 0 .38-.35.61-.78z" paint-order="markers fill stroke"/>
    <path d="M95.92 259.28c-12.43-1.25-25.97-5.93-36.05-12.46-15.21-9.85-25.87-25.13-28.64-41.06-.74-4.23-1.16-12.1-.72-13.46l.32-.98 47.35 2.62c26.05 1.44 48.5 2.6 49.9 2.59 1.39-.01-18.7-1.22-44.63-2.69a7963.12 7963.12 0 0 1-50.04-2.91l-2.87-.26.24-1.74c.52-3.83 4.15-15.15 6.5-20.23a25.44 25.44 0 0 0 1.71-4.61c.26-2.02 6.27-16.58 10.73-26 6.93-14.63 16.55-32.58 27.99-52.19 13.14-22.53 21.23-35.84 21.62-35.6.24.15.3.07.13-.2-.3-.49 1.42-3.64 1.96-3.59.2.02.36-.3.39-.72.02-.41.66-1.6 1.4-2.63 1.3-1.78 4.32-7.2 12.19-21.9 1.96-3.65 3.55-6.21 3.75-6.02.97.97 20.64 46.42 27.55 63.65 11.32 28.23 19.82 53.31 25 73.81 3.3 12.98 6.94 33.62 7.31 41.31l.24 5.01-6.58-.2-6.6-.2 6.34.4 6.33.4v1.46c0 4.48-2.41 13.3-5.3 19.38-3.68 7.7-10.56 16.3-17.64 22-15.97 12.9-38.18 19.2-59.88 17.02zm68.12-61.02a25.3 25.3 0 0 0-3.5 0c-1.03.08-.3.15 1.64.15 1.93 0 2.77-.07 1.86-.15zm-7.01-.39a25.3 25.3 0 0 0-3.51 0c-1.03.08-.29.15 1.64.15s2.77-.07 1.87-.15zm-7.02-.39a25.3 25.3 0 0 0-3.5 0c-1.03.08-.3.15 1.64.15 1.93 0 2.76-.07 1.86-.15zm-7.02-.39a25.3 25.3 0 0 0-3.5 0c-1.03.08-.29.15 1.64.15s2.77-.07 1.86-.15zm-7.01-.39a25.3 25.3 0 0 0-3.5 0c-1.03.08-.3.15 1.64.15 1.92 0 2.76-.07 1.86-.15zM96.5 55.9c.23-.44.33-.79.23-.79-.11 0-.39.35-.62.78-.23.43-.33.78-.22.78.1 0 .38-.35.61-.78z" paint-order="markers fill stroke"/>
    <path d="M97.48 259.5c-20.68-2.16-37.55-9.93-50.22-23.15-9.46-9.88-15.19-21.74-16.6-34.4-.46-4.15-.5-9.11-.1-10.04.24-.54 3.53-.42 30.08 1.06 16.4.92 30.87 1.62 32.16 1.57 1.29-.05-11.34-.84-28.06-1.76-16.72-.93-31.26-1.79-32.3-1.91l-1.9-.23.26-1.92c.34-2.52 3.38-12.6 5.1-16.86a24.8 24.8 0 0 0 1.4-4.22c.04-.66.09-.7.23-.18.17.65 3.78.68 68.9.68h68.72l.22.88c.91 3.74 3.47 21.04 3.69 25l.27 4.92-3.12.07-3.12.08 2.83.13 2.82.14v1.7c0 4.2-2.36 12.92-5.13 18.91-2.4 5.22-6.96 11.7-11.59 16.49-11.47 11.87-26.64 19.51-44.3 22.31-3.72.59-17 1.07-20.24.73zm73.77-60.84c-.59-.1-1.64-.1-2.34 0-.7.08-.22.15 1.06.15 1.29 0 1.86-.06 1.28-.15zm-7.8-.4a8.61 8.61 0 0 0-2.15 0c-.59.1-.1.17 1.07.17 1.18 0 1.66-.07 1.08-.16zm-7.02-.38a8.61 8.61 0 0 0-2.14 0c-.6.09-.11.16 1.07.16 1.18 0 1.66-.07 1.07-.16zm-7.02-.4a8.61 8.61 0 0 0-2.14 0c-.59.1-.1.17 1.07.17 1.18 0 1.66-.07 1.07-.16zm-7.01-.38a8.61 8.61 0 0 0-2.15 0c-.59.09-.1.16 1.08.16 1.18 0 1.66-.07 1.07-.16zm-7.02-.4a8.61 8.61 0 0 0-2.14 0c-.6.1-.1.17 1.07.17 1.18 0 1.66-.07 1.07-.16zm-8.57-.38a8.61 8.61 0 0 0-2.15 0c-.59.09-.1.16 1.08.16 1.17 0 1.66-.07 1.07-.16zm-5.45-.4c-.8-.08-2.2-.08-3.12 0-.91.08-.26.15 1.45.15 1.72 0 2.47-.06 1.67-.15zm-7.22-.39c-.91-.08-2.4-.08-3.31 0-.91.08-.17.15 1.65.15 1.83 0 2.57-.07 1.66-.15zm-6.61-.39c-.9-.08-2.49-.08-3.51 0-1.03.08-.29.15 1.64.15s2.77-.07 1.87-.15zm-7.02-.39c-.9-.08-2.48-.08-3.5 0-1.03.08-.3.15 1.64.15 1.93 0 2.76-.07 1.86-.15z" paint-order="markers fill stroke"/>
    <path d="M97.28 259.5c-.53-.09-2.55-.35-4.48-.59a92.07 92.07 0 0 1-16.43-4.01 72.79 72.79 0 0 1-29.1-18.55c-9.65-10.07-15.3-21.94-16.67-35.05-.41-3.95-.39-9.53.04-9.88.1-.08 5.54.16 12.08.54 6.53.38 13.11.68 14.61.66 1.5 0-3.85-.42-11.89-.92-8.03-.49-14.66-.9-14.7-.92-1.09-.3 4.93-20.16 7.14-23.61.28-.43.6-1.34.72-2.02.44-2.51 5.48-15.06 9.76-24.29 5.47-11.8 15.26-30.49 23.62-45.1 8.63-15.1 30.53-51.92 32.15-54.1.48-.64 3.9-6.78 7.58-13.64a472.57 472.57 0 0 1 7.02-12.8c.4-.44 1 .76 5.65 11.24 28.24 63.79 42.74 103.64 49.85 137 1.99 9.35 4.49 24.88 4.73 29.41.12 2.16.29 4.4.38 5 .16 1.06.15 1.07-2.26 1.14l-2.43.07 2.05.14 2.04.15v1.77c0 4.33-2.86 14.48-5.65 20.02a70.2 70.2 0 0 1-10.99 15.2c-14.65 15.3-35.5 23.56-58.78 23.32-2.78-.02-5.5-.11-6.04-.19zm73.38-60.82a1.5 1.5 0 0 0-.98 0c-.27.1-.05.2.49.2.53 0 .75-.1.49-.2zm-7.4-.39a2.3 2.3 0 0 0-1.17-.01c-.38.1-.17.18.48.19.64 0 .95-.07.69-.18zm-7.02-.39a2.3 2.3 0 0 0-1.17-.01c-.38.1-.16.18.48.19.65 0 .96-.07.7-.18zm-7.01-.39a2.3 2.3 0 0 0-1.17-.01c-.38.1-.17.18.48.19.64 0 .95-.07.69-.18zm-7.02-.39a2.3 2.3 0 0 0-1.17-.01c-.38.1-.16.18.48.19.64 0 .95-.07.69-.18zm-7.41-.4c-.27-.1-.7-.1-.98 0-.26.12-.05.2.49.2s.76-.08.49-.2zm-14.03-.79c-.49-.1-1.28-.1-1.76 0s-.09.17.88.17c.96 0 1.36-.08.88-.17zm-7.41-.39c-.48-.1-1.27-.1-1.75 0-.49.1-.1.17.87.17s1.36-.07.88-.17zm-6.62-.39a6.7 6.7 0 0 0-1.95 0c-.6.09-.2.16.87.17 1.07 0 1.56-.07 1.08-.17zm-7.02-.39a6.63 6.63 0 0 0-1.94 0c-.6.09-.2.16.87.17 1.07 0 1.55-.07 1.07-.17zm-7.8-.39a6.62 6.62 0 0 0-1.94 0c-.6.09-.2.16.87.17 1.07 0 1.56-.07 1.08-.17zm-6.04-.4a17.8 17.8 0 0 0-2.92 0c-.8.09-.15.16 1.46.16 1.6 0 2.27-.07 1.46-.16zm-6.82-.39c-.91-.08-2.4-.08-3.31 0-.91.09-.17.15 1.65.15 1.83 0 2.57-.06 1.66-.15zm-7.01-.39a23 23 0 0 0-3.32 0c-.9.09-.16.15 1.66.15 1.82 0 2.57-.06 1.66-.15zm-6.62-.39a25.3 25.3 0 0 0-3.5 0c-1.03.08-.3.15 1.64.15 1.93 0 2.77-.06 1.86-.15z" paint-order="markers fill stroke"/>
    <path d="M93.97 259.16c-18.82-2.69-33.46-9.7-45.63-21.82-10.22-10.19-15.72-20.9-17.52-34.12-.56-4.06-.76-10.36-.37-11.38.15-.4 1.15-.51 4.19-.47 2.19.03 3.1-.01 2.03-.09a98.86 98.86 0 0 1-4-.36c-1.93-.21-2.04-.28-2.04-1.34 0-2.6 5.57-19.79 7.25-22.41.28-.43.61-1.39.74-2.13.13-.75 1.22-3.9 2.42-7.02 5.83-15.16 15.6-35.02 28.87-58.65 6.8-12.11 29.78-50.95 33.83-57.15.92-1.42 4.6-8 8.17-14.62 3.58-6.63 6.65-12.2 6.82-12.39.42-.45 1.1.93 7.22 14.81 26.6 60.26 41.1 100.15 47.96 131.89 1.9 8.75 4.78 26.14 5.04 30.3.11 1.88.29 4.16.38 5.07l.18 1.66-2.04.06-2.04.07 1.71.15 1.72.16-.24 3.19c-.5 6.65-4.07 16.94-8 23.04a72.24 72.24 0 0 1-20.38 20.79c-9.12 6.12-20.66 10.53-32.3 12.36-5.74.9-18.93 1.11-23.97.4zm19.19-63.58c-.13-.13-.47-.14-.75-.03-.31.13-.22.22.24.24.4.01.64-.08.5-.2zm-6.82-.41c-.26-.1-.7-.1-.97 0s-.05.2.49.2c.53 0 .75-.1.48-.2zm-7.01-.39c-.27-.1-.7-.1-.98 0-.26.1-.04.2.5.2.53 0 .75-.1.48-.2zm-8-.37c-.13-.13-.47-.14-.75-.03-.3.13-.21.22.24.24.41.01.64-.08.51-.2zm-6.03-.43a5.77 5.77 0 0 0-1.76 0c-.48.1-.08.17.88.17.97 0 1.36-.07.88-.17zm-6.62-.39a6.7 6.7 0 0 0-1.95 0c-.6.09-.2.16.87.17 1.07 0 1.56-.07 1.08-.17zm-7.02-.39a6.7 6.7 0 0 0-1.95 0c-.59.09-.2.16.87.17 1.08 0 1.56-.07 1.08-.17zm-7.01-.39a7.06 7.06 0 0 0-1.95 0c-.6.09-.2.16.87.17 1.07 0 1.55-.07 1.08-.17zm-8-.39a8.61 8.61 0 0 0-2.14 0c-.6.09-.11.16 1.07.16 1.18 0 1.66-.07 1.07-.16zm-5.84-.4c-.8-.08-2.2-.08-3.11 0-.92.09-.27.15 1.45.16 1.71 0 2.46-.07 1.66-.15zm-6.83-.39c-.9-.08-2.4-.08-3.31 0-.91.09-.17.15 1.66.15 1.82 0 2.56-.06 1.65-.15z" paint-order="markers fill stroke"/>
    <path d="M93.77 259.14a85.97 85.97 0 0 1-25.52-7.57c-19.65-9.54-33.36-26.3-37.02-45.24-.7-3.64-1.24-12.56-.85-14.12.24-.97.32-1 3.27-.89 1.66.07 2.41.05 1.66-.03-4.62-.5-4.68-.52-4.68-1.64 0-2.32 4.38-16.54 6.34-20.61a42.5 42.5 0 0 0 1.85-4.87c2.15-7.09 8.2-21 15.24-35.08 9.76-19.51 21.33-39.96 41.82-73.91 10.21-16.94 10.98-18.26 17.23-29.82 2.91-5.4 5.45-9.97 5.64-10.17.44-.46 2.5 3.93 11.46 24.51 25.44 58.44 38.52 95.67 44.82 127.66 1.83 9.3 3.65 20.78 3.92 24.75.12 1.72.3 3.96.4 4.97l.2 1.86-1.67.06c-1.58.06-1.6.07-.29.21l1.38.15-.3 3.2c-1.69 17.38-13.51 34.7-31.12 45.6-9.44 5.83-22.44 10.06-34.29 11.16-5.9.55-14.86.47-19.49-.18zM84.91 194c-.27-.1-.7-.1-.98 0-.26.1-.05.2.49.2s.76-.1.49-.2zm-6.62-.39a2.3 2.3 0 0 0-1.17-.01c-.38.1-.16.18.48.2.64 0 .95-.08.69-.19zm-7.02-.39a2.3 2.3 0 0 0-1.17-.01c-.38.1-.16.18.48.2.65 0 .96-.08.7-.19zm-7.01-.39a2.3 2.3 0 0 0-1.17-.01c-.38.1-.17.19.48.2.64 0 .95-.08.69-.19zm-7.8-.39a2.3 2.3 0 0 0-1.17-.01c-.38.1-.16.19.48.2.65 0 .96-.08.7-.19zm-6.24-.4a5.2 5.2 0 0 0-1.76 0c-.48.09-.08.16.88.16.97 0 1.36-.07.88-.17zm-6.62-.4a7.06 7.06 0 0 0-1.95 0c-.6.09-.2.17.87.17s1.56-.07 1.08-.16z" paint-order="markers fill stroke"/>
  </g>
</svg>
